<svg xmlns="http://www.w3.org/2000/svg" viewBox="0 0 216 198.62"><defs><style>.cls-1{fill:#fff;}</style></defs><title>Asset 1</title><g id="Layer_2" data-name="Layer 2"><g id="Layer_1-2" data-name="Layer 1"><path class="cls-1" d="M213.22,196.01c0-.14-.01-.28-.01-.41v-.39a1.565,1.565,0,0,0-.3-.84,1.316,1.316,0,0,0-.93-.52,2.222,2.222,0,0,0,.78-.26,1.172,1.172,0,0,0,.53-1.08,1.34,1.34,0,0,0-.84-1.37,4.018,4.018,0,0,0-1.5-.2h-1.9v5.42H210v-2.12h.77a2.45,2.45,0,0,1,1.07.17,1.312,1.312,0,0,1,.52,1.24v.43l.02.16c0,.03.01.05.01.07s.01.04.01.05h.89l-.04-.07A1.2,1.2,0,0,1,213.22,196.01Zm-1.42-2.58a2.484,2.484,0,0,1-.93.13H210v-1.94h.83a2.383,2.383,0,0,1,1.16.2.942.942,0,0,1-.19,1.61Zm1.42,2.58c0-.14-.01-.28-.01-.41v-.39a1.565,1.565,0,0,0-.3-.84,1.316,1.316,0,0,0-.93-.52,2.222,2.222,0,0,0,.78-.26,1.172,1.172,0,0,0,.53-1.08,1.34,1.34,0,0,0-.84-1.37,4.018,4.018,0,0,0-1.5-.2h-1.9v5.42H210v-2.12h.77a2.45,2.45,0,0,1,1.07.17,1.312,1.312,0,0,1,.52,1.24v.43l.02.16c0,.03.01.05.01.07s.01.04.01.05h.89l-.04-.07A1.2,1.2,0,0,1,213.22,196.01Zm-1.42-2.58a2.484,2.484,0,0,1-.93.13H210v-1.94h.83a2.383,2.383,0,0,1,1.16.2.942.942,0,0,1-.19,1.61Zm2.75-3.26a4.943,4.943,0,0,0-6.99,6.99,4.913,4.913,0,0,0,6.99,0,4.937,4.937,0,0,0,0-6.99Zm-.48,6.51a4.264,4.264,0,1,1-3.02-7.27,4.271,4.271,0,0,1,3.02,7.27Zm-.78-4.17a1.34,1.34,0,0,0-.84-1.37,4.018,4.018,0,0,0-1.5-.2h-1.9v5.42H210v-2.12h.77a2.45,2.45,0,0,1,1.07.17,1.312,1.312,0,0,1,.52,1.24v.43l.02.16c0,.03.01.05.01.07s.01.04.01.05h.89l-.04-.07a1.2,1.2,0,0,1-.03-.28c0-.14-.01-.28-.01-.41v-.39a1.565,1.565,0,0,0-.3-.84,1.316,1.316,0,0,0-.93-.52,2.222,2.222,0,0,0,.78-.26A1.172,1.172,0,0,0,213.29,192.51Zm-1.49.92a2.484,2.484,0,0,1-.93.13H210v-1.94h.83a2.383,2.383,0,0,1,1.16.2.942.942,0,0,1-.19,1.61Zm1.42,2.58c0-.14-.01-.28-.01-.41v-.39a1.565,1.565,0,0,0-.3-.84,1.316,1.316,0,0,0-.93-.52,2.222,2.222,0,0,0,.78-.26,1.172,1.172,0,0,0,.53-1.08,1.34,1.34,0,0,0-.84-1.37,4.018,4.018,0,0,0-1.5-.2h-1.9v5.42H210v-2.12h.77a2.45,2.45,0,0,1,1.07.17,1.312,1.312,0,0,1,.52,1.24v.43l.02.16c0,.03.01.05.01.07s.01.04.01.05h.89l-.04-.07A1.2,1.2,0,0,1,213.22,196.01Zm-1.42-2.58a2.484,2.484,0,0,1-.93.13H210v-1.94h.83a2.383,2.383,0,0,1,1.16.2.942.942,0,0,1-.19,1.61Zm1.42,2.58c0-.14-.01-.28-.01-.41v-.39a1.565,1.565,0,0,0-.3-.84,1.316,1.316,0,0,0-.93-.52,2.222,2.222,0,0,0,.78-.26,1.172,1.172,0,0,0,.53-1.08,1.34,1.34,0,0,0-.84-1.37,4.018,4.018,0,0,0-1.5-.2h-1.9v5.42H210v-2.12h.77a2.45,2.45,0,0,1,1.07.17,1.312,1.312,0,0,1,.52,1.24v.43l.02.16c0,.03.01.05.01.07s.01.04.01.05h.89l-.04-.07A1.2,1.2,0,0,1,213.22,196.01Zm-1.42-2.58a2.484,2.484,0,0,1-.93.13H210v-1.94h.83a2.383,2.383,0,0,1,1.16.2.942.942,0,0,1-.19,1.61Z"/><path d="M214.07,190.66a4.264,4.264,0,0,0-6.04,6.02,4.249,4.249,0,0,0,6.04,0,4.3,4.3,0,0,0,0-6.02Zm-1.16,3.71a1.565,1.565,0,0,1,.3.84v.39c0,.13.01.27.01.41a1.2,1.2,0,0,0,.03.28l.04.07h-.89c0-.01,0-.04-.01-.05s-.01-.04-.01-.07l-.02-.16v-.43a1.312,1.312,0,0,0-.52-1.24,2.45,2.45,0,0,0-1.07-.17H210v2.12h-.95v-5.42h1.9a4.018,4.018,0,0,1,1.5.2,1.34,1.34,0,0,1,.84,1.37,1.172,1.172,0,0,1-.53,1.08,2.222,2.222,0,0,1-.78.26A1.316,1.316,0,0,1,212.91,194.37Z"/><path d="M212.36,192.6a.8.8,0,0,1-.56.83,2.484,2.484,0,0,1-.93.13H210v-1.94h.83a2.383,2.383,0,0,1,1.16.2A.792.792,0,0,1,212.36,192.6Z"/><path class="cls-1" d="M178.43,0H38.26C17.17,0,0,16.65,0,37.11V161.62c0,20.75,16.65,37,37.92,37H178.08c21.26,0,37.92-16.25,37.92-37V37.11C216,16.3,199.5,0,178.43,0Zm33.31,161.62c0,18.36-14.78,32.74-33.66,32.74H37.92c-18.88,0-33.67-14.38-33.67-32.74V37.1C4.25,18.68,19.2,4.25,38.26,4.25H178.43c18.68,0,33.31,14.43,33.31,32.85Z"/><path d="M178.43,4.25H38.26C19.2,4.25,4.25,18.68,4.25,37.1V161.62c0,18.36,14.79,32.74,33.67,32.74H178.08c18.88,0,33.66-14.38,33.66-32.74V37.1C211.74,18.68,197.11,4.25,178.43,4.25ZM161.07,135.29l3.95,26.94-21.16-16.26-28.39,16.87,13.27-28.55s-15.43-16.27-15.43-16.28c-1.03-1.39-1.38-4.96-1.38-6.49,0-4.15.56-8.42.56-13.82,0-7.08-3.1-10.79-10.67-10.79H87.63l-6.18,29.25H60.11L77.08,35.77h40.18c14.93,0,26.32,3.71,26.32,20.84,0,12.05-5.87,20.62-18.81,22.41v.23c6.09,1.47,8.37,5.63,8.37,13.39,0,5.85-.34,10.34-.34,14.95a23.135,23.135,0,0,0,2.52,10.42h2.96l15.86-26.79,4.29,26.98h27.06Z"/><path class="cls-1" d="M185.49,118.2H158.43l-4.29-26.98-15.86,26.79h-2.96a23.135,23.135,0,0,1-2.52-10.42c0-4.61.34-9.1.34-14.95,0-7.76-2.28-11.92-8.37-13.39v-.23c12.94-1.79,18.81-10.36,18.81-22.41,0-17.13-11.39-20.84-26.32-20.84H77.08L60.11,116.16H81.45l6.18-29.25h14.19c7.57,0,10.67,3.71,10.67,10.79,0,5.4-.56,9.67-.56,13.82,0,1.53.35,5.1,1.38,6.49,0,.01,15.43,16.28,15.43,16.28l-13.27,28.55,28.39-16.87,21.16,16.26-3.95-26.94ZM108.2,71.86H91.23L95.3,52.48h15.79c5.62,0,11.46,1.46,11.46,8.34C122.55,69.49,115.9,71.86,108.2,71.86Zm35.96,69.37-19.78,11.74,9.05-19.44-11.01-11.59h18.11l11.44-19.34,3.11,19.53h17.96l-16.2,11.33,2.9,19.75Z"/><polygon points="156.84 133.46 159.74 153.21 144.16 141.23 124.38 152.97 133.43 133.53 122.42 121.94 140.53 121.94 151.97 102.6 155.08 122.13 173.04 122.13 156.84 133.46"/><path d="M122.55,60.82c0,8.67-6.65,11.04-14.35,11.04H91.23L95.3,52.48h15.79C116.71,52.48,122.55,53.94,122.55,60.82Z"/></g></g></svg>