<svg xmlns="http://www.w3.org/2000/svg" viewBox="0 0 216 198.83"><defs><style>.cls-1{fill:#fcaf17;}.cls-2{fill:#fff;}</style></defs><title>Asset 1</title><g id="Layer_2" data-name="Layer 2"><g id="Layer_1-2" data-name="Layer 1"><path d="M214.55,197.37a4.94,4.94,0,1,1,1.45-3.5A4.75,4.75,0,0,1,214.55,197.37Zm-6.52-6.5a4.27,4.27,0,0,0,0,6,4.25,4.25,0,0,0,6,0,4.26,4.26,0,0,0-6-6Zm2.92.27a4.24,4.24,0,0,1,1.5.2,1.36,1.36,0,0,1,.84,1.38,1.17,1.17,0,0,1-.53,1.08,2.45,2.45,0,0,1-.78.26,1.32,1.32,0,0,1,.93.52,1.57,1.57,0,0,1,.3.84v.39c0,.13,0,.27,0,.41a1.2,1.2,0,0,0,0,.28l0,.07h-.89a.07.07,0,0,0,0,0s0,0,0-.07l0-.17v-.42c0-.63-.17-1.05-.52-1.24a2.45,2.45,0,0,0-1.07-.17H210v2.12h-.95v-5.43Zm1,.89a2.38,2.38,0,0,0-1.16-.2H210v1.94h.87a2.48,2.48,0,0,0,.93-.13A.94.94,0,0,0,212,192Z"/><path d="M178.43,0H38.26C17.17,0,0,16.66,0,37.12V161.63c0,20.74,16.65,37,37.91,37H178.08c21.26,0,37.92-16.26,37.92-37V37.12C216,16.31,199.5,0,178.43,0Zm33.31,161.62c0,18.36-14.78,32.75-33.66,32.75H37.91C19,194.37,4.25,180,4.25,161.62V37.11c0-18.43,15-32.86,34-32.86H178.43c18.68,0,33.31,14.43,33.31,32.86Z"/><path class="cls-1" d="M178.43,4.25H38.26c-19.06,0-34,14.43-34,32.86V161.62C4.25,180,19,194.37,37.91,194.37H178.08c18.88,0,33.66-14.39,33.66-32.75V37.11C211.74,18.68,197.11,4.25,178.43,4.25Z"/><path d="M185.49,118.2H158.43l-4.29-27L138.28,118h-3a23.14,23.14,0,0,1-2.52-10.42c0-4.6.34-9.1.34-15,0-7.76-2.28-11.92-8.37-13.38V79c12.94-1.8,18.81-10.36,18.81-22.42,0-17.12-11.39-20.84-26.32-20.84H77.08l-17,80.4H81.45l6.18-29.25h14.19c7.57,0,10.67,3.7,10.67,10.79,0,5.39-.56,9.66-.56,13.81,0,1.54.35,5.11,1.38,6.49,0,0,15.43,16.29,15.43,16.29l-13.27,28.55L143.86,146,165,162.23l-4-26.93ZM108.2,71.86h-17L95.3,52.48h15.79c5.62,0,11.46,1.46,11.46,8.34C122.55,69.49,115.9,71.86,108.2,71.86Z"/><polygon class="cls-2" points="173.03 122.13 155.08 122.13 151.97 102.6 140.53 121.94 122.42 121.94 133.43 133.54 124.38 152.98 144.16 141.23 159.74 153.21 156.84 133.46 173.03 122.13"/></g></g></svg>